<svg width="936" height="256" viewBox="0 0 936 256" fill="none" xmlns="http://www.w3.org/2000/svg">
<g clip-path="url(#clip0_10433_3070)">
<path d="M822.32 119.289C818.099 115.067 817.283 106.687 820.14 96.8664C823.084 86.7486 829.585 76.2983 838.447 67.4459C848.213 57.6838 860.061 50.7033 870.952 48.3007C879.36 46.4637 886.531 47.5484 890.309 51.3273C894.536 55.5552 895.353 63.9353 892.496 73.7557C889.557 83.8736 883.056 94.3238 874.194 103.176C864.422 112.938 852.575 119.919 841.689 122.321C838.972 122.916 836.407 123.208 834.045 123.208C829.002 123.208 824.915 121.872 822.32 119.289ZM935 91.9678C935 111.218 927.508 129.314 913.894 142.925C899.848 156.973 881.395 164 862.947 164C844.499 164 826.046 156.979 812 142.925L804.619 135.11C786.778 115.813 794.357 79.3949 822.367 51.3798C850.464 23.2772 887.015 15.7253 906.273 33.7858L913.894 41.0112C927.508 54.6222 935 72.7235 935 91.9678ZM813.732 127.873C827.667 141.799 858.901 134.06 881.972 110.991C905.037 87.9149 912.768 56.6632 898.857 42.7373C894.146 38.0312 887.458 35.7977 879.78 35.7977C864.743 35.7977 845.893 44.3469 830.617 59.6199C807.552 82.6956 799.82 113.947 813.732 127.873Z" fill="black"/>
</g>
<path d="M66.4 166.8C49.0667 166.8 35.3333 162 25.2 152.4C15.0667 142.667 10 128.8 10 110.8V77.2C10 59.2 15.0667 45.4 25.2 35.8C35.3333 26.0667 49.0667 21.2 66.4 21.2C83.6 21.2 96.8667 25.9333 106.2 35.4C115.667 44.7333 120.4 57.6 120.4 74V75.2H94.4V73.2C94.4 64.9333 92.0667 58.1333 87.4 52.8C82.8667 47.4667 75.8667 44.8 66.4 44.8C57.0667 44.8 49.7333 47.6667 44.4 53.4C39.0667 59.1333 36.4 66.9333 36.4 76.8V111.2C36.4 120.933 39.0667 128.733 44.4 134.6C49.7333 140.333 57.0667 143.2 66.4 143.2C75.8667 143.2 82.8667 140.533 87.4 135.2C92.0667 129.733 94.4 122.933 94.4 114.8V111.2H120.4V114C120.4 130.4 115.667 143.333 106.2 152.8C96.8667 162.133 83.6 166.8 66.4 166.8ZM181.911 166.8C172.044 166.8 163.178 164.8 155.311 160.8C147.444 156.8 141.244 151 136.711 143.4C132.178 135.8 129.911 126.667 129.911 116V112.8C129.911 102.133 132.178 93 136.711 85.4C141.244 77.8 147.444 72 155.311 68C163.178 64 172.044 62 181.911 62C191.778 62 200.644 64 208.511 68C216.378 72 222.578 77.8 227.111 85.4C231.644 93 233.911 102.133 233.911 112.8V116C233.911 126.667 231.644 135.8 227.111 143.4C222.578 151 216.378 156.8 208.511 160.8C200.644 164.8 191.778 166.8 181.911 166.8ZM181.911 144.4C189.644 144.4 196.044 141.933 201.111 137C206.178 131.933 208.711 124.733 208.711 115.4V113.4C208.711 104.067 206.178 96.9333 201.111 92C196.178 86.9333 189.778 84.4 181.911 84.4C174.178 84.4 167.778 86.9333 162.711 92C157.644 96.9333 155.111 104.067 155.111 113.4V115.4C155.111 124.733 157.644 131.933 162.711 137C167.778 141.933 174.178 144.4 181.911 144.4ZM295.772 166.8C286.172 166.8 277.439 164.8 269.572 160.8C261.839 156.8 255.705 151 251.172 143.4C246.639 135.8 244.372 126.6 244.372 115.8V113C244.372 102.2 246.639 93 251.172 85.4C255.705 77.8 261.839 72 269.572 68C277.439 64 286.172 62 295.772 62C305.239 62 313.372 63.6667 320.172 67C326.972 70.3333 332.439 74.9333 336.572 80.8C340.839 86.5333 343.639 93.0667 344.972 100.4L320.572 105.6C320.039 101.6 318.839 98 316.972 94.8C315.105 91.6 312.439 89.0667 308.972 87.2C305.639 85.3333 301.439 84.4 296.372 84.4C291.305 84.4 286.705 85.5333 282.572 87.8C278.572 89.9333 275.372 93.2 272.972 97.6C270.705 101.867 269.572 107.133 269.572 113.4V115.4C269.572 121.667 270.705 127 272.972 131.4C275.372 135.667 278.572 138.933 282.572 141.2C286.705 143.333 291.305 144.4 296.372 144.4C303.972 144.4 309.705 142.467 313.572 138.6C317.572 134.6 320.105 129.4 321.172 123L345.572 128.8C343.839 135.867 340.839 142.333 336.572 148.2C332.439 153.933 326.972 158.467 320.172 161.8C313.372 165.133 305.239 166.8 295.772 166.8ZM405.559 166.8C395.693 166.8 386.826 164.8 378.959 160.8C371.093 156.8 364.893 151 360.359 143.4C355.826 135.8 353.559 126.667 353.559 116V112.8C353.559 102.133 355.826 93 360.359 85.4C364.893 77.8 371.093 72 378.959 68C386.826 64 395.693 62 405.559 62C415.426 62 424.293 64 432.159 68C440.026 72 446.226 77.8 450.759 85.4C455.293 93 457.559 102.133 457.559 112.8V116C457.559 126.667 455.293 135.8 450.759 143.4C446.226 151 440.026 156.8 432.159 160.8C424.293 164.8 415.426 166.8 405.559 166.8ZM405.559 144.4C413.293 144.4 419.693 141.933 424.759 137C429.826 131.933 432.359 124.733 432.359 115.4V113.4C432.359 104.067 429.826 96.9333 424.759 92C419.826 86.9333 413.426 84.4 405.559 84.4C397.826 84.4 391.426 86.9333 386.359 92C381.293 96.9333 378.759 104.067 378.759 113.4V115.4C378.759 124.733 381.293 131.933 386.359 137C391.426 141.933 397.826 144.4 405.559 144.4ZM472.82 164V64.8H497.62V77.8H501.22C502.82 74.3333 505.82 71.0667 510.22 68C514.62 64.8 521.287 63.2 530.22 63.2C537.954 63.2 544.687 65 550.42 68.6C556.287 72.0667 560.82 76.9333 564.02 83.2C567.22 89.3333 568.82 96.5333 568.82 104.8V164H543.62V106.8C543.62 99.3333 541.754 93.7333 538.02 90C534.42 86.2667 529.22 84.4 522.42 84.4C514.687 84.4 508.687 87 504.42 92.2C500.154 97.2667 498.02 104.4 498.02 113.6V164H472.82ZM624.3 165.6C616.567 165.6 609.767 163.867 603.9 160.4C598.167 156.8 593.7 151.867 590.5 145.6C587.3 139.333 585.7 132.133 585.7 124V64.8H610.9V122C610.9 129.467 612.7 135.067 616.3 138.8C620.033 142.533 625.3 144.4 632.1 144.4C639.833 144.4 645.833 141.867 650.1 136.8C654.367 131.6 656.5 124.4 656.5 115.2V64.8H681.7V164H656.9V151H653.3C651.7 154.333 648.7 157.6 644.3 160.8C639.9 164 633.233 165.6 624.3 165.6ZM739.742 164C733.209 164 727.876 162 723.742 158C719.742 153.867 717.742 148.4 717.742 141.6V85.6H692.942V64.8H717.742V34H742.942V64.8H770.142V85.6H742.942V137.2C742.942 141.2 744.809 143.2 748.542 143.2H767.742V164H739.742Z" fill="black"/>
<path d="M360.834 252.953V209.184H368.159V214.398H368.627C369.799 212.113 372.143 208.773 377.768 208.773C385.092 208.773 390.893 214.516 390.893 225.121C390.893 235.609 385.268 241.586 377.768 241.586C372.26 241.586 369.799 238.305 368.627 235.961H368.334V252.953H360.834ZM368.159 225.062C368.159 231.273 370.854 235.434 375.717 235.434C380.639 235.434 383.276 231.098 383.276 225.062C383.276 219.145 380.698 214.867 375.717 214.867C370.854 214.867 368.159 218.91 368.159 225.062ZM408.239 241.645C398.981 241.645 393.005 235.082 393.005 225.238C393.005 215.336 398.981 208.773 408.239 208.773C417.555 208.773 423.473 215.336 423.473 225.238C423.473 235.082 417.555 241.645 408.239 241.645ZM408.298 235.668C413.395 235.668 415.915 231.039 415.915 225.18C415.915 219.379 413.395 214.691 408.298 214.691C403.083 214.691 400.563 219.379 400.563 225.18C400.563 231.039 403.083 235.668 408.298 235.668ZM432.616 241L423.593 209.184H431.21L436.835 231.566H437.128L442.812 209.184H450.37L456.113 231.449H456.405L461.972 209.184H469.589L460.566 241H452.773L446.796 219.438H446.386L440.409 241H432.616ZM485.177 241.645C475.568 241.645 469.709 235.258 469.709 225.297C469.709 215.453 475.685 208.773 484.767 208.773C492.56 208.773 499.298 213.637 499.298 224.828V227.172H477.091C477.179 232.592 480.373 235.785 485.236 235.785C488.517 235.785 490.744 234.379 491.681 232.504H499.005C497.658 238.012 492.56 241.645 485.177 241.645ZM477.15 222.074H492.15C492.091 217.738 489.22 214.574 484.884 214.574C480.373 214.574 477.384 218.002 477.15 222.074ZM502.699 241V209.184H509.965V214.457H510.316C511.43 210.824 514.535 208.715 518.168 208.715C518.988 208.715 520.16 208.773 520.863 208.891V215.805C520.219 215.57 518.637 215.336 517.406 215.336C513.246 215.336 510.199 218.207 510.199 222.25V241H502.699ZM535.983 241.645C526.373 241.645 520.514 235.258 520.514 225.297C520.514 215.453 526.491 208.773 535.573 208.773C543.366 208.773 550.104 213.637 550.104 224.828V227.172H527.897C527.985 232.592 531.178 235.785 536.041 235.785C539.323 235.785 541.549 234.379 542.487 232.504H549.811C548.463 238.012 543.366 241.645 535.983 241.645ZM527.955 222.074H542.955C542.897 217.738 540.026 214.574 535.69 214.574C531.178 214.574 528.19 218.002 527.955 222.074ZM565.341 241.586C557.841 241.586 552.216 235.609 552.216 225.121C552.216 214.516 558.016 208.773 565.399 208.773C571.024 208.773 573.368 212.113 574.481 214.398H574.774V198.578H582.216V241H574.891V235.961H574.481C573.309 238.305 570.848 241.586 565.341 241.586ZM567.391 235.434C572.196 235.434 574.95 231.273 574.95 225.062C574.95 218.91 572.255 214.867 567.391 214.867C562.411 214.867 559.833 219.145 559.833 225.062C559.833 231.098 562.47 235.434 567.391 235.434ZM599.564 241V198.578H607.064V214.398H607.357C608.529 212.113 610.814 208.773 616.439 208.773C623.822 208.773 629.623 214.516 629.623 225.121C629.623 235.609 623.939 241.586 616.498 241.586C610.99 241.586 608.529 238.305 607.357 235.961H606.888V241H599.564ZM606.888 225.062C606.888 231.273 609.584 235.434 614.388 235.434C619.369 235.434 622.005 231.098 622.005 225.062C622.005 219.145 619.427 214.867 614.388 214.867C609.584 214.867 606.888 218.91 606.888 225.062ZM636.48 252.953C635.016 252.953 633.551 252.895 632.613 252.777V246.801C633.551 246.859 634.781 246.918 635.777 246.918C637.594 246.918 639.117 246.742 640.406 243.344L641.051 241.645L629.449 209.184H637.359L644.742 233.207H645.094L652.477 209.184H660.387L647.613 244.867C645.797 249.965 642.457 252.953 636.48 252.953ZM709.727 198.578V241H702.93L682.833 211.996H682.481V241H674.864V198.578H681.778L701.759 227.582H702.169V198.578H709.727ZM728.714 241.645C719.456 241.645 713.48 235.082 713.48 225.238C713.48 215.336 719.456 208.773 728.714 208.773C738.03 208.773 743.948 215.336 743.948 225.238C743.948 235.082 738.03 241.645 728.714 241.645ZM728.773 235.668C733.87 235.668 736.39 231.039 736.39 225.18C736.39 219.379 733.87 214.691 728.773 214.691C723.558 214.691 721.038 219.379 721.038 225.18C721.038 231.039 723.558 235.668 728.773 235.668ZM754.849 222.367V241H747.349V209.184H754.498V214.574H754.908C756.373 211 759.595 208.773 764.341 208.773C770.962 208.773 775.298 213.109 775.24 220.727V241H767.798V221.898C767.798 217.621 765.513 215.102 761.587 215.102C757.603 215.102 754.849 217.738 754.849 222.367ZM793.875 241.645C784.383 241.645 778.641 234.848 778.641 225.238C778.641 215.512 784.559 208.773 793.875 208.773C801.609 208.773 807 213.285 807.527 220.141H800.379C799.793 217.094 797.566 214.75 793.934 214.75C789.305 214.75 786.199 218.676 786.199 225.062C786.199 231.625 789.246 235.551 793.934 235.551C797.273 235.551 799.734 233.617 800.379 230.16H807.527C806.941 236.898 801.844 241.645 793.875 241.645ZM824.873 241.645C815.264 241.645 809.405 235.258 809.405 225.297C809.405 215.453 815.381 208.773 824.463 208.773C832.256 208.773 838.995 213.637 838.995 224.828V227.172H816.788C816.875 232.592 820.069 235.785 824.932 235.785C828.213 235.785 830.44 234.379 831.377 232.504H838.702C837.354 238.012 832.256 241.645 824.873 241.645ZM816.846 222.074H831.846C831.788 217.738 828.916 214.574 824.58 214.574C820.069 214.574 817.08 218.002 816.846 222.074ZM842.747 241V198.578H850.364V234.555H869.114V241H842.747ZM870.991 232.035C870.991 224.887 876.909 222.777 882.827 222.426C885.025 222.279 889.595 222.016 890.972 221.957V219.438C890.972 216.273 888.921 214.457 885.23 214.457C881.89 214.457 879.839 215.98 879.253 218.266H872.046C872.573 212.875 877.437 208.773 885.405 208.773C891.441 208.773 898.413 211.234 898.413 219.73V241H891.265V236.605H891.03C889.624 239.301 886.636 241.645 881.655 241.645C875.562 241.645 870.991 238.305 870.991 232.035ZM878.198 231.977C878.198 234.73 880.425 236.137 883.589 236.137C888.101 236.137 891.03 233.148 891.03 229.574V226.938L883.999 227.406C880.425 227.699 878.198 229.164 878.198 231.977ZM903.396 241V198.578H910.896V214.398H911.189C912.361 212.113 914.646 208.773 920.271 208.773C927.654 208.773 933.455 214.516 933.455 225.121C933.455 235.609 927.771 241.586 920.33 241.586C914.822 241.586 912.361 238.305 911.189 235.961H910.72V241H903.396ZM910.72 225.062C910.72 231.273 913.416 235.434 918.22 235.434C923.201 235.434 925.838 231.098 925.838 225.062C925.838 219.145 923.259 214.867 918.22 214.867C913.416 214.867 910.72 218.91 910.72 225.062Z" fill="black"/>
<defs>
<clipPath id="clip0_10433_3070">
<rect width="140" height="140" fill="white" transform="translate(795 24)"/>
</clipPath>
</defs>
</svg>
